<?xml version="1.0" encoding="UTF-8" standalone="no"?>
<!-- Created with Inkscape (http://www.inkscape.org/) -->

<svg
   xmlns:dc="http://purl.org/dc/elements/1.1/"
   xmlns:cc="http://creativecommons.org/ns#"
   xmlns:rdf="http://www.w3.org/1999/02/22-rdf-syntax-ns#"
   xmlns:svg="http://www.w3.org/2000/svg"
   xmlns="http://www.w3.org/2000/svg"
   xmlns:sodipodi="http://sodipodi.sourceforge.net/DTD/sodipodi-0.dtd"
   xmlns:inkscape="http://www.inkscape.org/namespaces/inkscape"
   width="12.018813mm"
   height="11.011323mm"
   viewBox="0 0 48.964299 45.394452"
   id="svg400149"
   version="1.1"
   inkscape:version="0.91 r13725"
   sodipodi:docname="layered.svg">
  <defs
     id="defs400151">
    <filter
       inkscape:collect="always"
       style="color-interpolation-filters:sRGB"
       id="filter400020"
       x="-0.081734993"
       width="1.16347"
       y="-0.086394116"
       height="1.1727881">
      <feGaussianBlur
         inkscape:collect="always"
         stdDeviation="8.315153"
         id="feGaussianBlur400022" />
    </filter>
    <filter
       inkscape:collect="always"
       style="color-interpolation-filters:sRGB"
       id="filter400120"
       x="-0.14377345"
       width="1.2875469"
       y="-0.086481765"
       height="1.1729635">
      <feGaussianBlur
         inkscape:collect="always"
         stdDeviation="2.8296293"
         id="feGaussianBlur400122" />
    </filter>
    <filter
       inkscape:collect="always"
       style="color-interpolation-filters:sRGB"
       id="filter400070"
       x="-0.10324502"
       width="1.20649"
       y="-0.089705117"
       height="1.1794102">
      <feGaussianBlur
         inkscape:collect="always"
         stdDeviation="1.978652"
         id="feGaussianBlur400072" />
    </filter>
  </defs>
  <sodipodi:namedview
     id="base"
     pagecolor="#ffffff"
     bordercolor="#666666"
     borderopacity="1.0"
     inkscape:pageopacity="0.0"
     inkscape:pageshadow="2"
     inkscape:zoom="0.35"
     inkscape:cx="-870.51785"
     inkscape:cy="-27.30277"
     inkscape:document-units="px"
     inkscape:current-layer="layer1"
     showgrid="false"
     fit-margin-top="0"
     fit-margin-left="0"
     fit-margin-right="0"
     fit-margin-bottom="0"
     inkscape:window-width="1920"
     inkscape:window-height="1019"
     inkscape:window-x="0"
     inkscape:window-y="0"
     inkscape:window-maximized="1" />
  <metadata
     id="metadata400154">
    <rdf:RDF>
      <cc:Work
         rdf:about="">
        <dc:format>image/svg+xml</dc:format>
        <dc:type
           rdf:resource="http://purl.org/dc/dcmitype/StillImage" />
        <dc:title></dc:title>
      </cc:Work>
    </rdf:RDF>
  </metadata>
  <g
     inkscape:label="Layer 1"
     inkscape:groupmode="layer"
     id="layer1"
     transform="translate(-295.51785,-458.23641)">
    <g
       id="g400124"
       transform="matrix(0.167566,0,0,0.167566,598.71937,719.34837)">
      <rect
         height="240"
         ry="21.599998"
         y="-1541.6151"
         x="-1794.3997"
         width="255"
         id="rect399873"
         style="opacity:0.20899999;fill:#b3e5fc;fill-opacity:1;fill-rule:evenodd;stroke:none;stroke-width:3.70000005;stroke-linecap:round;stroke-linejoin:round;stroke-miterlimit:4;stroke-dasharray:none;stroke-dashoffset:0;stroke-opacity:1" />
      <path
         inkscape:connector-curvature="0"
         id="path399981"
         d="m -1545.3296,-1538.307 -48.8318,30.1875 -48.8319,-21.3086 -48.8319,23.8574 -48.8319,-25.9316 -48.8319,26.1914 0,197.9961 48.8319,-26.1914 48.8319,25.9316 48.8319,-23.8574 48.8319,21.3086 48.8318,-30.1875 0,-197.9961 z"
         style="opacity:0.79100001;fill:#212121;fill-opacity:1;fill-rule:evenodd;stroke:none;stroke-width:3.70000005;stroke-linecap:round;stroke-linejoin:round;stroke-miterlimit:4;stroke-dasharray:none;stroke-dashoffset:0;stroke-opacity:1;filter:url(#filter400020)" />
      <path
         sodipodi:nodetypes="ccccc"
         inkscape:connector-curvature="0"
         id="rect399875"
         d="m -1792.3242,-1510.1813 50.2462,-26.1923 0,197.9962 -50.2462,26.1923 z"
         style="opacity:1;fill:#6d4c41;fill-opacity:1;fill-rule:evenodd;stroke:none;stroke-width:3.70000005;stroke-linecap:round;stroke-linejoin:round;stroke-miterlimit:4;stroke-dasharray:none;stroke-dashoffset:0;stroke-opacity:1" />
      <path
         sodipodi:nodetypes="ccccc"
         inkscape:connector-curvature="0"
         style="opacity:1;fill:#4e342e;fill-opacity:1;fill-rule:evenodd;stroke:none;stroke-width:3.70000005;stroke-linecap:round;stroke-linejoin:round;stroke-miterlimit:4;stroke-dasharray:none;stroke-dashoffset:0;stroke-opacity:1"
         d="m -1742.078,-1536.3736 50.2461,25.9323 0,197.9961 -50.2461,-25.9322 z"
         id="path399878" />
      <path
         sodipodi:nodetypes="ccccc"
         id="path399880"
         d="m -1691.8319,-1510.4413 50.2461,-23.8573 0,197.9961 -50.2461,23.8573 z"
         style="opacity:1;fill:#6d4c41;fill-opacity:1;fill-rule:evenodd;stroke:none;stroke-width:3.70000005;stroke-linecap:round;stroke-linejoin:round;stroke-miterlimit:4;stroke-dasharray:none;stroke-dashoffset:0;stroke-opacity:1"
         inkscape:connector-curvature="0" />
      <path
         sodipodi:nodetypes="ccccc"
         inkscape:connector-curvature="0"
         style="opacity:1;fill:#4e342e;fill-opacity:1;fill-rule:evenodd;stroke:none;stroke-width:3.70000005;stroke-linecap:round;stroke-linejoin:round;stroke-miterlimit:4;stroke-dasharray:none;stroke-dashoffset:0;stroke-opacity:1"
         d="m -1641.5858,-1534.2986 50.2462,21.309 0,197.9961 -50.2462,-21.309 z"
         id="path399882" />
      <path
         sodipodi:nodetypes="ccccc"
         id="path399884"
         d="m -1591.3396,-1512.9896 50.2461,-30.1878 0,197.9962 -50.2461,30.1877 z"
         style="opacity:1;fill:#6d4c41;fill-opacity:1;fill-rule:evenodd;stroke:none;stroke-width:3.70000005;stroke-linecap:round;stroke-linejoin:round;stroke-miterlimit:4;stroke-dasharray:none;stroke-dashoffset:0;stroke-opacity:1"
         inkscape:connector-curvature="0" />
      <path
         style="opacity:0.70800003;fill:#212121;fill-opacity:1;fill-rule:evenodd;stroke:none;stroke-width:3.70000005;stroke-linecap:round;stroke-linejoin:round;stroke-miterlimit:4;stroke-dasharray:none;stroke-dashoffset:0;stroke-opacity:1;filter:url(#filter400120)"
         d="m -1776.0968,-1471.2973 c -13.0435,0 -23.6174,12.4594 -23.6174,27.8287 0,3.0899 0.4273,6.0622 1.2163,8.8393 3.135,11.0364 21.1197,41.8585 22.4011,41.8585 1.3557,0 19.7738,-31.2867 22.6576,-42.8192 0.6246,-2.4979 0.9598,-5.1421 0.9598,-7.8786 0,-15.3693 -10.5739,-27.8287 -23.6174,-27.8287 z m 0,13.6309 c 6.6549,-10e-5 12.0499,6.3563 12.0505,14.1978 10e-5,7.8422 -5.3951,14.1995 -12.0505,14.1995 -6.6554,0 -12.0506,-6.3573 -12.0505,-14.1995 6e-4,-7.8415 5.3956,-14.1979 12.0505,-14.1978 z"
         id="path400074"
         inkscape:connector-curvature="0"
         sodipodi:nodetypes="sssssssccccc" />
      <path
         sodipodi:nodetypes="sssssssccccc"
         inkscape:connector-curvature="0"
         id="path399886"
         d="m -1776.0968,-1473.4186 c -14.9961,0 -27.1529,12.4594 -27.1529,27.8287 0,3.0899 0.4912,6.0622 1.3983,8.8393 3.6044,11.0364 24.2814,41.8585 25.7546,41.8585 1.5587,0 22.734,-31.2867 26.0494,-42.8192 0.7182,-2.4979 1.1035,-5.1421 1.1035,-7.8786 0,-15.3693 -12.1568,-27.8287 -27.1529,-27.8287 z m 0,13.6309 c 7.6511,-10e-5 13.8538,6.3563 13.8545,14.1978 10e-5,7.8422 -6.2028,14.1995 -13.8545,14.1995 -7.6517,0 -13.8546,-6.3573 -13.8545,-14.1995 7e-4,-7.8415 6.2034,-14.1979 13.8545,-14.1978 z"
         style="opacity:1;fill:#2196f3;fill-opacity:1;fill-rule:evenodd;stroke:none;stroke-width:3.70000005;stroke-linecap:round;stroke-linejoin:round;stroke-miterlimit:4;stroke-dasharray:none;stroke-dashoffset:0;stroke-opacity:1" />
      <path
         sodipodi:nodetypes="ccccc"
         inkscape:connector-curvature="0"
         id="rect399891"
         d="m -1779.8923,-1385.5112 11.639,0.9418 0,10.0452 -11.639,0.9417 z"
         style="opacity:1;fill:#f5f5f5;fill-opacity:1;fill-rule:evenodd;stroke:none;stroke-width:3.70000005;stroke-linecap:round;stroke-linejoin:round;stroke-miterlimit:4;stroke-dasharray:none;stroke-dashoffset:0;stroke-opacity:1" />
      <rect
         transform="matrix(0.99288507,0.11907663,-0.11343854,0.99354502,0,0)"
         y="-1163.5642"
         x="-1906.316"
         height="8.2667284"
         width="13.37611"
         id="rect399893"
         style="opacity:1;fill:#f5f5f5;fill-opacity:1;fill-rule:evenodd;stroke:none;stroke-width:3.70000005;stroke-linecap:round;stroke-linejoin:round;stroke-miterlimit:4;stroke-dasharray:none;stroke-dashoffset:0;stroke-opacity:1" />
      <path
         sodipodi:nodetypes="ccccccc"
         inkscape:connector-curvature="0"
         id="rect399895"
         d="m -1730.0395,-1396.2404 -1.5671,16.0644 -14.1533,-1.5422 -1.241,9.6334 22.1846,1.77 2.8081,-21.3031 z"
         style="opacity:1;fill:#f5f5f5;fill-opacity:1;fill-rule:evenodd;stroke:none;stroke-width:3.70000005;stroke-linecap:round;stroke-linejoin:round;stroke-miterlimit:4;stroke-dasharray:none;stroke-dashoffset:0;stroke-opacity:1" />
      <path
         sodipodi:nodetypes="ccccccc"
         inkscape:connector-curvature="0"
         id="rect399899"
         d="m -1725.3546,-1430.8731 -4.4948,19.472 9.5145,1.6596 0.8772,-11.6744 9.2139,0.9055 1.1612,-8.7637 z"
         style="opacity:1;fill:#f5f5f5;fill-opacity:1;fill-rule:evenodd;stroke:none;stroke-width:3.70000005;stroke-linecap:round;stroke-linejoin:round;stroke-miterlimit:4;stroke-dasharray:none;stroke-dashoffset:0;stroke-opacity:1" />
      <rect
         transform="matrix(0.99213145,0.12520061,-0.11928093,0.99286054,0,0)"
         y="-1204.4121"
         x="-1865.1449"
         height="9.337821"
         width="17.771372"
         id="rect399903"
         style="opacity:1;fill:#f5f5f5;fill-opacity:1;fill-rule:evenodd;stroke:none;stroke-width:3.70000005;stroke-linecap:round;stroke-linejoin:round;stroke-miterlimit:4;stroke-dasharray:none;stroke-dashoffset:0;stroke-opacity:1" />
      <path
         inkscape:connector-curvature="0"
         id="rect399905"
         d="m -1674.3429,-1435.4906 -0.8468,10.0082 -10.4478,-0.9286 -0.8466,10.0066 18.9185,1.6813 1.6934,-20.0148 -8.4707,-0.7527 z"
         style="opacity:1;fill:#f5f5f5;fill-opacity:1;fill-rule:evenodd;stroke:none;stroke-width:3.70000005;stroke-linecap:round;stroke-linejoin:round;stroke-miterlimit:4;stroke-dasharray:none;stroke-dashoffset:0;stroke-opacity:1" />
      <rect
         transform="matrix(0.99519253,0.0979379,-0.09328062,0.99563986,0,0)"
         y="-1294.6564"
         x="-1801.3594"
         height="24.524317"
         width="7.4577236"
         id="rect399909"
         style="opacity:1;fill:#f5f5f5;fill-opacity:1;fill-rule:evenodd;stroke:none;stroke-width:3.70000005;stroke-linecap:round;stroke-linejoin:round;stroke-miterlimit:4;stroke-dasharray:none;stroke-dashoffset:0;stroke-opacity:1" />
      <path
         sodipodi:nodetypes="ccccccc"
         inkscape:connector-curvature="0"
         id="rect399911"
         d="m -1671.1371,-1493.9799 -2.9151,22.8025 11.9697,0.3794 -0.066,-12.8168 12.0883,3.0425 2.5432,-10.8712 z"
         style="opacity:1;fill:#f5f5f5;fill-opacity:1;fill-rule:evenodd;stroke:none;stroke-width:3.70000005;stroke-linecap:round;stroke-linejoin:round;stroke-miterlimit:4;stroke-dasharray:none;stroke-dashoffset:0;stroke-opacity:1" />
      <path
         sodipodi:nodetypes="ccccccc"
         inkscape:connector-curvature="0"
         id="rect399915"
         d="m -1638.8849,-1489.686 -2.4885,8.1329 10.7768,2.4318 1.6703,9.8945 9.8173,1.7231 -2.9238,-18.9383 z"
         style="opacity:1;fill:#f5f5f5;fill-opacity:1;fill-rule:evenodd;stroke:none;stroke-width:3.70000005;stroke-linecap:round;stroke-linejoin:round;stroke-miterlimit:4;stroke-dasharray:none;stroke-dashoffset:0;stroke-opacity:1" />
      <path
         sodipodi:nodetypes="ccccc"
         inkscape:connector-curvature="0"
         id="rect399919"
         d="m -1629.4036,-1464.8271 9.3116,1.587 1.8145,17.2505 -9.7448,-3.3627 z"
         style="opacity:1;fill:#f5f5f5;fill-opacity:1;fill-rule:evenodd;stroke:none;stroke-width:3.70000005;stroke-linecap:round;stroke-linejoin:round;stroke-miterlimit:4;stroke-dasharray:none;stroke-dashoffset:0;stroke-opacity:1" />
      <path
         sodipodi:nodetypes="ccccccc"
         inkscape:connector-curvature="0"
         id="rect399921"
         d="m -1627.8112,-1444.6881 4.8038,29.5485 23.3703,-7.4801 -3.0044,-13.5485 -12.2433,8.4095 -1.7995,-12.8925 z"
         style="opacity:1;fill:#f5f5f5;fill-opacity:1;fill-rule:evenodd;stroke:none;stroke-width:3.70000005;stroke-linecap:round;stroke-linejoin:round;stroke-miterlimit:4;stroke-dasharray:none;stroke-dashoffset:0;stroke-opacity:1" />
      <path
         sodipodi:nodetypes="ccccc"
         inkscape:connector-curvature="0"
         id="rect399925"
         d="m -1591.9385,-1441.155 25.4983,-14.0045 0.2263,13.2168 -26.3646,13.1167 z"
         style="opacity:1;fill:#f5f5f5;fill-opacity:1;fill-rule:evenodd;stroke:none;stroke-width:3.70000005;stroke-linecap:round;stroke-linejoin:round;stroke-miterlimit:4;stroke-dasharray:none;stroke-dashoffset:0;stroke-opacity:1" />
      <path
         style="opacity:0.73500001;fill:#212121;fill-opacity:1;fill-rule:evenodd;stroke:none;stroke-width:3.70000005;stroke-linecap:round;stroke-linejoin:round;stroke-miterlimit:4;stroke-dasharray:none;stroke-dashoffset:0;stroke-opacity:1;filter:url(#filter400070)"
         d="m -1533.5826,-1477.0003 -12.0227,15.8384 -13.7612,-13.8376 -8.6137,11.3473 13.7613,13.8373 -12.0228,15.8384 9.8591,9.9137 12.0226,-15.8383 13.7613,13.8375 8.6136,-11.3472 -13.7613,-13.8375 12.0229,-15.8382 -9.8591,-9.9138 z"
         id="path400024"
         inkscape:connector-curvature="0" />
      <path
         inkscape:connector-curvature="0"
         id="rect399927"
         d="m -1532.1805,-1478.4005 -13.5014,15.8384 -15.4537,-13.8376 -9.673,11.3473 15.4538,13.8373 -13.5015,15.8384 11.0716,9.9137 13.5013,-15.8383 15.4538,13.8375 9.6729,-11.3472 -15.4537,-13.8375 13.5015,-15.8382 -11.0716,-9.9138 z"
         style="opacity:1;fill:#ffd54f;fill-opacity:1;fill-rule:evenodd;stroke:none;stroke-width:3.70000005;stroke-linecap:round;stroke-linejoin:round;stroke-miterlimit:4;stroke-dasharray:none;stroke-dashoffset:0;stroke-opacity:1" />
    </g>
  </g>
</svg>
